<svg width="512" height="512" viewBox="0 0 512 512" fill="none" xmlns="http://www.w3.org/2000/svg">
  <defs>
    <linearGradient id="bgGrad" x1="0" y1="0" x2="512" y2="512" gradientUnits="userSpaceOnUse">
      <stop offset="0" stop-color="#EF4444"/>
      <stop offset="1" stop-color="#DC2626"/>
    </linearGradient>
    <linearGradient id="barGrad" x1="208" y1="356" x2="348" y2="220" gradientUnits="userSpaceOnUse">
      <stop offset="0" stop-color="#BFDBFE"/>
      <stop offset="1" stop-color="#FFFFFF"/>
    </linearGradient>
  </defs>

  <rect x="24" y="24" width="464" height="464" rx="96" fill="url(#bgGrad)"/>

  <circle cx="160" cy="154" r="52" fill="#FEE2E2" fill-opacity="0.9"/>
  <circle cx="160" cy="154" r="28" fill="#FFFFFF" fill-opacity="0.92"/>

  <path d="M118 314C146 264 208 242 266 254C294 224 340 220 378 238C370 256 354 270 336 278C364 288 388 306 396 334C364 348 308 350 266 342C224 376 162 386 116 372C102 350 102 332 118 314Z" fill="#FFFFFF" fill-opacity="0.95"/>

  <circle cx="314" cy="338" r="76" stroke="#FEE2E2" stroke-width="18"/>
  <circle cx="314" cy="338" r="36" fill="#FEE2E2" fill-opacity="0.92"/>

  <rect x="284" y="346" width="10" height="22" rx="3" fill="url(#barGrad)"/>
  <rect x="300" y="332" width="10" height="36" rx="3" fill="url(#barGrad)"/>
  <rect x="316" y="322" width="10" height="46" rx="3" fill="url(#barGrad)"/>
  <rect x="332" y="308" width="10" height="60" rx="3" fill="url(#barGrad)"/>
</svg>
